<?xml version="1.0" encoding="utf-8"?>
<!-- Generator: Adobe Illustrator 15.0.0, SVG Export Plug-In . SVG Version: 6.00 Build 0)  -->
<!DOCTYPE svg PUBLIC "-//W3C//DTD SVG 1.1//EN" "http://www.w3.org/Graphics/SVG/1.1/DTD/svg11.dtd">
<svg version="1.1" id="レイヤー_1" xmlns="http://www.w3.org/2000/svg" xmlns:xlink="http://www.w3.org/1999/xlink" x="0px"
	 y="0px" width="102.05px" height="102.05px" viewBox="0 0 102.05 102.05" enable-background="new 0 0 102.05 102.05"
	 xml:space="preserve">
<g>
	<path fill="#444344" d="M11.4,26.623c0.912-0.345,1.861-0.937,2.847-1.775c0.079,0.739,0.256,1.385,0.533,1.938h2.781
		c-0.335-0.602-0.56-1.23-0.673-1.886c-0.114-0.656-0.17-2.221-0.17-4.696v-3.55c0-1.183-0.044-2.001-0.133-2.455
		c-0.158-0.729-0.434-1.333-0.829-1.812c-0.395-0.478-1.011-0.875-1.849-1.191c-0.838-0.315-1.928-0.473-3.269-0.473
		c-1.351,0-2.539,0.185-3.565,0.555c-1.025,0.37-1.81,0.897-2.352,1.583c-0.542,0.686-0.932,1.585-1.168,2.7l2.603,0.355
		c0.286-1.114,0.727-1.891,1.324-2.33c0.597-0.439,1.521-0.658,2.773-0.658c1.341,0,2.352,0.301,3.032,0.902
		c0.503,0.444,0.754,1.208,0.754,2.293c0,0.099-0.005,0.331-0.015,0.695c-1.016,0.355-2.599,0.661-4.748,0.917
		c-1.055,0.128-1.844,0.261-2.367,0.399c-0.71,0.197-1.349,0.488-1.916,0.873S3.97,19.9,3.62,20.536
		c-0.35,0.636-0.525,1.339-0.525,2.108c0,1.312,0.463,2.389,1.39,3.232s2.253,1.265,3.979,1.265
		C9.509,27.14,10.488,26.967,11.4,26.623z M5.935,22.57c0-0.463,0.123-0.885,0.37-1.265c0.247-0.38,0.597-0.668,1.05-0.866
		c0.454-0.197,1.228-0.375,2.322-0.532c1.933-0.276,3.382-0.611,4.349-1.006v0.976c0,1.174-0.143,2.061-0.429,2.663
		c-0.375,0.779-0.961,1.393-1.76,1.841c-0.799,0.449-1.711,0.673-2.736,0.673c-1.036,0-1.822-0.237-2.359-0.71
		C6.203,23.871,5.935,23.28,5.935,22.57z"/>
	<rect x="20.785" y="5.101" fill="#444344" width="2.663" height="21.684"/>
	<path fill="#444344" d="M28.063,22.185c0,1.598,0.108,2.646,0.326,3.143c0.217,0.498,0.591,0.9,1.124,1.206
		c0.532,0.306,1.282,0.458,2.248,0.458c0.592,0,1.262-0.079,2.012-0.237l-0.384-2.352c-0.483,0.069-0.873,0.104-1.169,0.104
		c-0.394,0-0.697-0.064-0.91-0.192c-0.212-0.128-0.365-0.301-0.458-0.518s-0.14-0.705-0.14-1.464v-9.186h2.677v-2.071H30.71V5.589
		l-2.648,1.598v3.89H26.11v2.071h1.952V22.185z"/>
	<rect x="36.006" y="5.101" fill="#444344" width="2.663" height="3.062"/>
	<rect x="36.006" y="11.077" fill="#444344" width="2.663" height="15.708"/>
	<path fill="#444344" d="M43.209,22.185c0,1.598,0.108,2.646,0.326,3.143c0.217,0.498,0.591,0.9,1.124,1.206
		c0.532,0.306,1.282,0.458,2.248,0.458c0.592,0,1.262-0.079,2.012-0.237l-0.384-2.352c-0.483,0.069-0.873,0.104-1.169,0.104
		c-0.394,0-0.697-0.064-0.91-0.192c-0.212-0.128-0.365-0.301-0.458-0.518s-0.14-0.705-0.14-1.464v-9.186h2.677v-2.071h-2.677V5.589
		l-2.648,1.598v3.89h-1.952v2.071h1.952V22.185z"/>
	<path fill="#444344" d="M53.852,26.607c0.804,0.355,1.669,0.533,2.596,0.533c2.101,0,3.762-0.888,4.985-2.663v2.308h2.381V11.077
		h-2.662v8.417c0,1.341-0.146,2.364-0.437,3.069c-0.291,0.706-0.786,1.263-1.486,1.671c-0.7,0.41-1.449,0.614-2.248,0.614
		s-1.47-0.2-2.012-0.599c-0.543-0.399-0.897-0.949-1.065-1.649c-0.108-0.483-0.162-1.42-0.162-2.811v-8.712h-2.663v9.733
		c0,1.134,0.054,1.962,0.163,2.485c0.157,0.779,0.431,1.438,0.82,1.975C52.451,25.807,53.048,26.252,53.852,26.607z"/>
	<path fill="#444344" d="M70.329,26.105c1.051,0.69,2.202,1.035,3.454,1.035c1.933,0,3.397-0.779,4.394-2.337v1.982h2.47V5.101
		h-2.647v7.78c-0.464-0.641-1.065-1.161-1.805-1.561s-1.583-0.599-2.529-0.599c-1.292,0-2.461,0.34-3.506,1.021
		c-1.045,0.681-1.829,1.659-2.352,2.936c-0.522,1.277-0.784,2.7-0.784,4.268c0,1.607,0.289,3.03,0.865,4.267
		C68.466,24.451,69.279,25.415,70.329,26.105z M70.951,14.375c0.793-0.966,1.782-1.449,2.965-1.449c1.213,0,2.234,0.503,3.063,1.508
		c0.828,1.006,1.242,2.584,1.242,4.733c0,1.953-0.406,3.405-1.22,4.356c-0.814,0.952-1.803,1.428-2.966,1.428
		c-1.154,0-2.155-0.498-3.003-1.494c-0.849-0.996-1.272-2.5-1.272-4.511C69.76,16.865,70.157,15.342,70.951,14.375z"/>
	<path fill="#444344" d="M98.426,18.901c0-2.593-0.665-4.605-1.996-6.035c-1.332-1.43-3.048-2.145-5.147-2.145
		c-2.17,0-3.935,0.73-5.296,2.189c-1.36,1.459-2.041,3.511-2.041,6.153c0,2.554,0.673,4.539,2.019,5.954
		c1.347,1.415,3.168,2.123,5.466,2.123c1.824,0,3.323-0.444,4.497-1.331c1.173-0.888,1.977-2.135,2.41-3.742l-2.751-0.34
		c-0.404,1.124-0.951,1.943-1.642,2.455c-0.69,0.513-1.523,0.77-2.5,0.77c-1.312,0-2.406-0.458-3.283-1.376
		c-0.878-0.917-1.366-2.238-1.465-3.964h11.715C98.421,19.296,98.426,19.059,98.426,18.901z M86.845,17.422
		c0.089-1.371,0.549-2.465,1.383-3.284c0.833-0.818,1.861-1.228,3.084-1.228c1.351,0,2.45,0.513,3.299,1.539
		c0.552,0.661,0.887,1.652,1.006,2.973H86.845z"/>
	<path fill="#444344" d="M13.019,75.021c1.208-0.106,2.723-0.16,4.544-0.16h20.379c1.943,0,3.45,0.054,4.521,0.16
		c-0.107-0.795-0.161-1.912-0.161-3.35v-4.498c0-1.362,0.053-2.471,0.161-3.328c-1.239,0.107-2.678,0.16-4.314,0.16H17.678
		c-1.974,0-3.527-0.053-4.659-0.16c0.107,0.842,0.161,1.951,0.161,3.328v4.498C13.164,73.093,13.111,74.21,13.019,75.021z
		 M19.032,68.205h17.35v2.479h-17.35V68.205z"/>
	<path fill="#444344" d="M12.422,76.421c-2.004,0-3.688-0.061-5.049-0.184c0.107,1.163,0.168,2.586,0.184,4.269v12.255
		c0,2.631-0.092,4.421-0.275,5.37h6.495c-0.168-1.301-0.252-3.091-0.252-5.37v-11.59h28.319v10.236c0,0.352-0.069,0.596-0.207,0.734
		c-0.153,0.152-0.498,0.229-1.033,0.229c-0.627,0-1.461-0.03-2.501-0.092c-0.031-0.871-0.046-1.529-0.046-1.973v-4.773
		c0-1.225,0.046-2.203,0.138-2.938c-0.888,0.092-2.111,0.137-3.672,0.137H20.822c-1.622,0-2.892-0.045-3.81-0.137
		c0.092,0.734,0.138,1.706,0.138,2.914v5.76c0,1.821-0.062,3.091-0.184,3.811h5.806v-1.836H34.5c0.643,0,1.377,0.015,2.203,0.045
		c0.443,1.424,0.666,2.854,0.666,4.292c1.591,0.046,2.715,0.069,3.374,0.069c2.05,0,3.549-0.161,4.498-0.482
		c1.178-0.398,1.935-1.117,2.272-2.157c0.199-0.582,0.298-1.66,0.298-3.235V80.483c0-1.622,0.061-3.037,0.184-4.246
		c-1.041,0.123-2.609,0.184-4.705,0.184H12.422z M32.709,89.043h-9.937v-2.111h9.937V89.043z"/>
	<path fill="#444344" d="M30.483,57.373v-0.437c0-1.01,0.084-1.935,0.252-2.776h-6.77c0.153,0.842,0.237,1.782,0.252,2.823v0.39
		H11.596c-2.219,0-3.978-0.092-5.278-0.275v5.554c1.208-0.152,2.853-0.229,4.934-0.229h32.771c2.111,0,3.779,0.077,5.003,0.229
		v-5.554c-1.331,0.184-3.006,0.275-5.026,0.275H30.483z"/>
	<path fill="#444344" d="M83.542,90.374c2.463-1.729,4.62-3.702,6.472-5.921c0.795-0.918,1.346-1.538,1.652-1.858l-2.983-3.121
		c-0.979,0.092-2.387,0.137-4.223,0.137H68.097c-2.479,0-4.207-0.068-5.186-0.206v5.141c1.086-0.122,2.685-0.184,4.796-0.184h3.121
		l-5.141,2.02c0.443,0.353,1.461,1.171,3.052,2.456c0.842,0.688,1.652,1.3,2.434,1.836c-3.26,1.04-7.16,1.621-11.705,1.744
		c1.01,2.064,1.706,3.992,2.089,5.783c3.702-0.475,6.893-1.102,9.569-1.883c2.097-0.643,4.093-1.399,5.99-2.271
		c4.391,2.126,10.098,3.503,17.12,4.131c0.551-2.387,1.293-4.482,2.226-6.288c-0.565,0-1.002,0-1.308,0
		C90.946,91.889,87.076,91.384,83.542,90.374z M77.46,88.103c-2.004-0.965-3.9-2.211-5.691-3.741h10.764
		C81.048,85.8,79.357,87.046,77.46,88.103z"/>
	<path fill="#444344" d="M61.901,70.294h5.76v4.131c-0.016,1.346-0.068,2.363-0.16,3.052c0.703-0.046,1.774-0.069,3.213-0.069h14.32
		c1.27,0,2.271,0.023,3.006,0.069c-0.092-0.719-0.138-1.736-0.138-3.052v-4.131h3.947c1.896,0,3.273,0.068,4.131,0.206v-5.485
		c-1.071,0.139-2.456,0.207-4.153,0.207h-3.925v-1.768c0-0.306,0.008-0.581,0.022-0.826h2.984c2.004,0,3.648,0.062,4.934,0.184v-5.6
		c-1.225,0.184-3.189,0.275-5.898,0.275h-11.13v-0.803c-0.016-1.132,0.061-2.004,0.229-2.616h-6.609
		c0.152,0.688,0.229,1.538,0.229,2.548v0.871h-11.36c-2.172,0-4.031-0.076-5.576-0.229c0.138,1.529,0.207,3.564,0.207,6.104
		c0,6.166-0.101,10.756-0.299,13.77c-0.275,4.178-0.812,7.619-1.606,10.328c-0.49,1.683-1.209,3.419-2.157,5.209
		c1.729,1.499,3.273,3.273,4.636,5.324c1.882-3.183,3.251-6.984,4.108-11.406C61.396,82.426,61.824,76.995,61.901,70.294z
		 M73.582,63.546l0.022-0.918h8.354c0.016,0.275,0.023,0.56,0.023,0.85v1.744h-8.399V63.546z M73.56,70.087h8.422v2.777H73.56
		V70.087z M61.946,62.628h5.691c0,0.275,0.016,0.628,0.047,1.057v1.537h-5.738V62.628z"/>
</g>
</svg>
