<?xml version="1.0" encoding="utf-8"?>
<!-- Generator: Adobe Illustrator 15.1.0, SVG Export Plug-In . SVG Version: 6.00 Build 0)  -->
<!DOCTYPE svg PUBLIC "-//W3C//DTD SVG 1.1//EN" "http://www.w3.org/Graphics/SVG/1.1/DTD/svg11.dtd">
<svg version="1.1" id="レイヤー_1" xmlns="http://www.w3.org/2000/svg" xmlns:xlink="http://www.w3.org/1999/xlink" x="0px"
	 y="0px" width="102.05px" height="102.05px" viewBox="0 0 102.05 102.05" enable-background="new 0 0 102.05 102.05"
	 xml:space="preserve">
<path d="M34.001,77.386c0-4.785,1.695-8.865,5.089-12.237c3.392-3.372,7.461-5.058,12.206-5.058c4.83,0,8.929,1.686,12.301,5.058
	s5.058,7.452,5.058,12.237c0,4.787-1.696,8.877-5.089,12.27c-3.393,3.395-7.482,5.089-12.27,5.089
	c-4.745,0-8.814-1.686-12.206-5.058C35.696,86.315,34.001,82.216,34.001,77.386z M40.807,77.386c0,2.914,1.03,5.402,3.091,7.462
	c2.061,2.061,4.548,3.091,7.461,3.091c2.874,0,5.34-1.03,7.4-3.091c2.061-2.06,3.091-4.548,3.091-7.462
	c0-2.912-1.03-5.4-3.091-7.461c-2.06-2.061-4.526-3.091-7.4-3.091c-2.913,0-5.4,1.03-7.461,3.091S40.807,74.474,40.807,77.386z"/>
<g>
	<path d="M4.871,20.887c0-4.786,1.695-8.866,5.089-12.238c3.392-3.372,7.461-5.058,12.206-5.058c4.829,0,8.929,1.686,12.301,5.058
		c3.372,3.372,5.058,7.452,5.058,12.238c0,4.787-1.696,8.877-5.088,12.27c-3.394,3.394-7.483,5.088-12.27,5.088
		c-4.745,0-8.814-1.686-12.206-5.058C6.566,29.815,4.871,25.717,4.871,20.887z M11.676,20.887c0,2.914,1.03,5.401,3.091,7.461
		c2.061,2.061,4.548,3.091,7.461,3.091c2.872,0,5.339-1.03,7.399-3.091c2.061-2.06,3.091-4.548,3.091-7.461
		c0-2.913-1.03-5.401-3.091-7.461c-2.06-2.061-4.527-3.091-7.399-3.091c-2.914,0-5.401,1.03-7.461,3.091
		C12.707,15.486,11.676,17.974,11.676,20.887z"/>
	<path d="M45.165,18.843V4.216H58.67v11.548c0,6.252-0.722,10.754-2.169,13.507c-2.006,3.779-5.132,6.625-9.378,8.539l-3.079-4.969
		c2.52-1.025,4.397-2.648,5.633-4.864c1.237-2.216,1.926-5.259,2.064-9.133H45.165z M62.376,18.843V4.216h13.507v11.548
		c0,6.252-0.723,10.754-2.17,13.507c-2.005,3.779-5.131,6.625-9.377,8.539l-3.08-4.969c2.52-1.025,4.398-2.648,5.635-4.864
		c1.237-2.216,1.925-5.259,2.065-9.133H62.376z"/>
	<path d="M84.277,18.843V4.216h13.508v11.548c0,6.252-0.723,10.754-2.169,13.507c-2.006,3.779-5.134,6.625-9.38,8.539l-3.077-4.969
		c2.52-1.025,4.396-2.648,5.633-4.864c1.237-2.216,1.926-5.259,2.063-9.133H84.277z"/>
</g>
<polygon points="97.703,46.275 4.953,64.275 4.953,56.525 97.703,38.525 "/>
</svg>
