<?xml version="1.0" encoding="utf-8"?>
<!-- Generator: Adobe Illustrator 15.0.0, SVG Export Plug-In . SVG Version: 6.00 Build 0)  -->
<!DOCTYPE svg PUBLIC "-//W3C//DTD SVG 1.1//EN" "http://www.w3.org/Graphics/SVG/1.1/DTD/svg11.dtd">
<svg version="1.1" id="レイヤー_1" xmlns="http://www.w3.org/2000/svg" xmlns:xlink="http://www.w3.org/1999/xlink" x="0px"
	 y="0px" width="102.05px" height="102.05px" viewBox="0 0 102.05 102.05" enable-background="new 0 0 102.05 102.05"
	 xml:space="preserve">
<g>
	<path fill="#AAAAAA" d="M55.098,31.659l8.552-1.056C64.799,23.105,67.686,11.767,69.799,6l-5.191,0.674
		C62.014,11.095,57.307,22.918,55.098,31.659z"/>
	<path fill="#AAAAAA" d="M82.116,7.064c-1.054,7.497-4.036,18.836-6.149,24.595l5.188-0.673C83.754,26.572,88.362,14.748,90.67,6
		L82.116,7.064z"/>
	<path fill="#AAAAAA" d="M54.808,6l-5.094,0.674c-2.593,4.421-7.304,16.244-9.609,24.985l8.65-1.056
		C49.812,23.105,52.693,11.767,54.808,6z"/>
	<path fill="#AAAAAA" d="M23.863,6.284c-6.921,0-12.591,5.673-12.591,12.497c0,6.917,5.67,12.592,12.591,12.592
		c6.823,0,12.493-5.674,12.492-12.592C36.355,12.153,30.878,6.284,23.863,6.284z M23.863,27.241c-4.711,0-8.459-3.749-8.459-8.459
		c0-4.421,3.556-8.366,8.459-8.366c4.613,0,8.361,3.757,8.36,8.366C32.224,23.492,28.476,27.241,23.863,27.241z"/>
	<path fill="#AAAAAA" d="M51.021,70.911c-6.921,0-12.591,5.673-12.591,12.497C38.43,90.325,44.1,96,51.021,96
		c6.823,0,12.493-5.674,12.492-12.592C63.513,76.78,58.036,70.911,51.021,70.911z M51.021,91.868c-4.711,0-8.459-3.749-8.459-8.459
		c0-4.421,3.556-8.366,8.459-8.366c4.613,0,8.361,3.758,8.36,8.366C59.381,88.119,55.633,91.868,51.021,91.868z"/>
	<polygon fill="#AAAAAA" points="38.243,50.272 63.699,50.272 50.971,38.545 	"/>
	<polygon fill="#AAAAAA" points="50.971,64 63.699,52.272 38.243,52.272 	"/>
</g>
</svg>
