<?xml version="1.0" encoding="utf-8"?>
<!-- Generator: Adobe Illustrator 15.0.0, SVG Export Plug-In . SVG Version: 6.00 Build 0)  -->
<!DOCTYPE svg PUBLIC "-//W3C//DTD SVG 1.1//EN" "http://www.w3.org/Graphics/SVG/1.1/DTD/svg11.dtd">
<svg version="1.1" id="レイヤー_1" xmlns="http://www.w3.org/2000/svg" xmlns:xlink="http://www.w3.org/1999/xlink" x="0px"
	 y="0px" width="102.05px" height="102.05px" viewBox="0 0 102.05 102.05" enable-background="new 0 0 102.05 102.05"
	 xml:space="preserve">
<g>
	<path fill="#444344" d="M23.902,42.611c-4.903,0-8.459,3.945-8.459,8.366c0,4.71,3.748,8.459,8.459,8.459
		c4.612,0,8.36-3.749,8.36-8.459C32.263,46.368,28.515,42.611,23.902,42.611z"/>
	<path fill="#444344" d="M84.378,5.67H17.669c-6.627,0-12,5.372-12,12v66.708c0,6.627,5.373,12,12,12h66.708c6.627,0,12-5.373,12-12
		V17.67C96.378,11.042,91.005,5.67,84.378,5.67z M23.902,63.568c-6.921,0-12.591-5.675-12.591-12.592
		c0-6.824,5.67-12.497,12.591-12.497c7.015,0,12.492,5.869,12.492,12.497C36.395,57.894,30.725,63.568,23.902,63.568z
		 M48.793,62.798l-8.65,1.056c2.305-8.741,7.016-20.564,9.609-24.985l5.094-0.674C52.732,43.962,49.85,55.301,48.793,62.798z
		 M63.688,62.798l-8.552,1.056c2.209-8.741,6.916-20.564,9.51-24.985l5.192-0.674C67.724,43.962,64.838,55.301,63.688,62.798z
		 M81.194,63.181l-5.189,0.673c2.114-5.759,5.096-17.098,6.15-24.595l8.554-1.064C88.401,46.943,83.792,58.767,81.194,63.181z"/>
</g>
</svg>
