<?xml version="1.0" encoding="utf-8"?>
<!-- Generator: Adobe Illustrator 15.0.0, SVG Export Plug-In . SVG Version: 6.00 Build 0)  -->
<!DOCTYPE svg PUBLIC "-//W3C//DTD SVG 1.1//EN" "http://www.w3.org/Graphics/SVG/1.1/DTD/svg11.dtd">
<svg version="1.1" id="レイヤー_1" xmlns="http://www.w3.org/2000/svg" xmlns:xlink="http://www.w3.org/1999/xlink" x="0px"
	 y="0px" width="102.05px" height="102.05px" viewBox="0 0 102.05 102.05" enable-background="new 0 0 102.05 102.05"
	 xml:space="preserve">
<g>
	<polygon fill="#444344" points="74,21 74,29 68,29 68,11 34,11 34,29 28,29 28,21 4,21 4,39 28,39 28,31 34,31 34,49 68,49 68,31 
		74,31 74,39 98,39 98,21 	"/>
	<rect x="38" y="5" fill="#444344" width="26" height="4"/>
	<circle fill="#444344" cx="51" cy="58" r="3"/>
	<path fill="#444344" d="M51,94c-9.925,0-18.925-4.037-25.444-10.556l-2.133,2.133C30.48,92.635,40.23,97,51,97
		s20.52-4.365,27.577-11.423l-2.133-2.133C69.926,89.963,60.926,94,51,94z"/>
	<path fill="#444344" d="M38.979,70.021C42.056,73.098,46.306,75,51,75c4.695,0,8.945-1.902,12.021-4.979l-2.127-2.127
		C58.359,70.43,54.859,72,51,72c-3.86,0-7.36-1.57-9.895-4.105L38.979,70.021z"/>
	<path fill="#444344" d="M30.494,78.507C35.742,83.754,42.992,87,51,87c8.009,0,15.259-3.246,20.507-8.493l-2.131-2.131
		C64.668,81.084,58.168,84,51,84s-13.668-2.916-18.376-7.624L30.494,78.507z"/>
</g>
</svg>
