<?xml version="1.0" encoding="utf-8"?>
<!-- Generator: Adobe Illustrator 15.0.0, SVG Export Plug-In . SVG Version: 6.00 Build 0)  -->
<!DOCTYPE svg PUBLIC "-//W3C//DTD SVG 1.1//EN" "http://www.w3.org/Graphics/SVG/1.1/DTD/svg11.dtd">
<svg version="1.1" id="レイヤー_1" xmlns="http://www.w3.org/2000/svg" xmlns:xlink="http://www.w3.org/1999/xlink" x="0px"
	 y="0px" width="102.05px" height="102.05px" viewBox="0 0 102.05 102.05" enable-background="new 0 0 102.05 102.05"
	 xml:space="preserve">
<g>
	<path fill="#AAAAAA" d="M51,4C25.042,4,4,25.042,4,51c0,25.957,21.042,47,47,47c25.957,0,47-21.043,47-47C98,25.042,76.957,4,51,4z
		 M8,51C8,27.625,26.751,8.561,50,8.025V18v2v30v2v30v2v9.975C26.751,93.439,8,74.375,8,51z M52,93.975V84h20v-2H52V68h12v-2H52V52
		h20v-2H52V36h12v-2H52V20h20v-2H52V8.025C75.248,8.561,94,27.625,94,51S75.248,93.439,52,93.975z"/>
	<rect x="24" y="31.927" fill="#AAAAAA" width="21.562" height="2.647"/>
	<path fill="#AAAAAA" d="M34.604,48.665c-0.098,0-0.329-0.005-0.691-0.015c-0.353-1.011-0.657-2.584-0.912-4.721
		c-0.128-1.049-0.26-1.833-0.397-2.353c-0.196-0.706-0.485-1.341-0.868-1.905c-0.382-0.564-0.89-1.02-1.522-1.368
		c-0.633-0.348-1.331-0.522-2.096-0.522c-1.304,0-2.375,0.461-3.213,1.383c-0.838,0.921-1.258,2.24-1.258,3.956
		c0,1.04,0.172,2.013,0.515,2.919c0.343,0.907,0.932,1.851,1.765,2.832C25.191,48.949,24.549,49.125,24,49.4v2.765
		c0.598-0.333,1.223-0.557,1.875-0.669c0.652-0.113,2.208-0.169,4.669-0.169h3.53c1.176,0,1.99-0.044,2.441-0.133
		c0.726-0.157,1.326-0.432,1.802-0.823c0.476-0.393,0.87-1.006,1.184-1.839c0.313-0.833,0.471-1.917,0.471-3.25
		c0-1.343-0.184-2.525-0.552-3.544c-0.368-1.02-0.893-1.799-1.574-2.339c-0.682-0.539-1.576-0.926-2.684-1.162l-0.353,2.588
		c1.108,0.285,1.88,0.723,2.316,1.316c0.436,0.593,0.654,1.513,0.654,2.758c0,1.333-0.299,2.338-0.897,3.015
		C36.443,48.415,35.683,48.665,34.604,48.665z M30.869,48.65c-1.167,0-2.049-0.143-2.647-0.427c-0.775-0.373-1.385-0.956-1.831-1.75
		c-0.446-0.795-0.669-1.701-0.669-2.721c0-1.03,0.235-1.812,0.706-2.346c0.471-0.535,1.059-0.802,1.765-0.802
		c0.46,0,0.88,0.123,1.257,0.368c0.377,0.245,0.664,0.593,0.86,1.044s0.373,1.221,0.53,2.309c0.274,1.921,0.608,3.362,1,4.324
		H30.869z"/>
	<path fill="#AAAAAA" d="M39.62,55.916v-1.941h-2.059v1.941h-8.987c-1.588,0-2.63,0.108-3.125,0.324
		c-0.495,0.215-0.895,0.588-1.199,1.117s-0.456,1.274-0.456,2.236c0,0.588,0.079,1.255,0.235,2l2.339-0.383
		c-0.069-0.48-0.103-0.867-0.103-1.162c0-0.392,0.063-0.693,0.191-0.904s0.299-0.362,0.515-0.456c0.215-0.093,0.701-0.14,1.456-0.14
		h9.134v2.662h2.059v-2.662h5.457l-1.588-2.633H39.62z"/>
	<rect x="24" y="64.55" fill="#AAAAAA" width="3.015" height="3.016"/>
</g>
</svg>
