<?xml version="1.0" encoding="utf-8"?>
<!-- Generator: Adobe Illustrator 15.0.0, SVG Export Plug-In . SVG Version: 6.00 Build 0)  -->
<!DOCTYPE svg PUBLIC "-//W3C//DTD SVG 1.1//EN" "http://www.w3.org/Graphics/SVG/1.1/DTD/svg11.dtd">
<svg version="1.1" id="レイヤー_1" xmlns="http://www.w3.org/2000/svg" xmlns:xlink="http://www.w3.org/1999/xlink" x="0px"
	 y="0px" width="102.05px" height="102.05px" viewBox="0 0 102.05 102.05" enable-background="new 0 0 102.05 102.05"
	 xml:space="preserve">
<path fill="#444344" d="M51.064,5.669c-25.07,0-45.395,20.324-45.395,45.394c0,25.072,20.324,45.395,45.395,45.395
	c25.071,0,45.396-20.323,45.396-45.395C96.46,25.993,76.135,5.669,51.064,5.669z M11.38,52.481h79.368
	c-0.182,5.173-1.351,10.092-3.327,14.578H14.707C12.73,62.573,11.562,57.654,11.38,52.481z M11.382,49.566
	c0.192-5.175,1.373-10.094,3.361-14.579h72.642c1.988,4.485,3.17,9.404,3.361,14.579H11.382z M51.064,11.343
	c7.807,0,15.08,2.261,21.221,6.15H29.844C35.984,13.604,43.258,11.343,51.064,11.343z M25.803,20.41h50.522
	c3.908,3.224,7.188,7.182,9.632,11.662H16.171C18.615,27.592,21.895,23.634,25.803,20.41z M29.72,84.554h42.688
	c-6.166,3.938-13.484,6.229-21.344,6.229C43.206,90.783,35.886,88.491,29.72,84.554z M76.417,81.638H25.711
	c-3.89-3.229-7.155-7.186-9.584-11.662h69.874C83.572,74.452,80.308,78.408,76.417,81.638z"/>
</svg>
