<?xml version="1.0" encoding="utf-8"?>
<!-- Generator: Adobe Illustrator 15.0.0, SVG Export Plug-In . SVG Version: 6.00 Build 0)  -->
<!DOCTYPE svg PUBLIC "-//W3C//DTD SVG 1.1//EN" "http://www.w3.org/Graphics/SVG/1.1/DTD/svg11.dtd">
<svg version="1.1" id="レイヤー_1" xmlns="http://www.w3.org/2000/svg" xmlns:xlink="http://www.w3.org/1999/xlink" x="0px"
	 y="0px" width="102.05px" height="102.05px" viewBox="0 0 102.05 102.05" enable-background="new 0 0 102.05 102.05"
	 xml:space="preserve">
<g>
	<polygon fill="#444344" points="16.079,21.715 6.543,21.715 6.543,4.639 3.981,4.639 3.981,24 16.079,24 	"/>
	<path fill="#444344" d="M23.54,15.917c-0.942,0.115-1.646,0.233-2.113,0.357c-0.634,0.176-1.204,0.436-1.71,0.779
		c-0.506,0.344-0.916,0.799-1.228,1.367c-0.313,0.568-0.469,1.195-0.469,1.882c0,1.171,0.414,2.133,1.242,2.886
		c0.828,0.752,2.012,1.129,3.553,1.129c0.933,0,1.807-0.154,2.621-0.462c0.814-0.308,1.662-0.836,2.542-1.584
		c0.07,0.66,0.229,1.237,0.476,1.73h2.482c-0.299-0.537-0.5-1.098-0.601-1.684c-0.102-0.585-0.152-1.983-0.152-4.193v-3.169
		c0-1.057-0.04-1.787-0.119-2.192c-0.141-0.651-0.387-1.19-0.739-1.618c-0.353-0.427-0.903-0.781-1.651-1.063
		c-0.749-0.282-1.722-0.423-2.919-0.423c-1.206,0-2.267,0.165-3.183,0.495s-1.616,0.801-2.1,1.413
		c-0.484,0.612-0.832,1.416-1.043,2.41l2.324,0.317c0.255-0.995,0.649-1.688,1.182-2.08s1.358-0.588,2.476-0.588
		c1.197,0,2.1,0.269,2.708,0.806c0.449,0.396,0.673,1.079,0.673,2.047c0,0.088-0.004,0.295-0.013,0.621
		C26.873,15.416,25.459,15.689,23.54,15.917z M27.779,17.833c0,1.048-0.127,1.84-0.383,2.377c-0.335,0.695-0.858,1.244-1.572,1.644
		c-0.713,0.401-1.527,0.601-2.443,0.601c-0.925,0-1.627-0.211-2.106-0.634c-0.48-0.422-0.72-0.951-0.72-1.584
		c0-0.414,0.11-0.791,0.331-1.129c0.22-0.339,0.532-0.596,0.938-0.772c0.405-0.176,1.096-0.334,2.073-0.476
		c1.726-0.246,3.02-0.546,3.883-0.898V17.833z"/>
	<path fill="#444344" d="M34.303,19.893c0,1.426,0.097,2.362,0.291,2.807c0.193,0.445,0.528,0.804,1.003,1.076
		c0.476,0.273,1.145,0.41,2.008,0.41c0.528,0,1.126-0.071,1.796-0.211l-0.343-2.1c-0.432,0.062-0.779,0.093-1.043,0.093
		c-0.352,0-0.623-0.057-0.812-0.172c-0.189-0.114-0.326-0.269-0.41-0.462c-0.083-0.194-0.125-0.629-0.125-1.308v-8.201h2.391V9.975
		h-2.391V5.075l-2.364,1.426v3.473H32.56v1.849h1.743V19.893z"/>
	<rect x="41.395" y="9.975" fill="#444344" width="2.377" height="14.025"/>
	<rect x="41.395" y="4.639" fill="#444344" width="2.377" height="2.734"/>
	<path fill="#444344" d="M52.581,21.874c-0.432,0.062-0.779,0.093-1.043,0.093c-0.352,0-0.623-0.057-0.812-0.172
		c-0.189-0.114-0.326-0.269-0.41-0.462c-0.083-0.194-0.125-0.629-0.125-1.308v-8.201h2.391V9.975H50.19V5.075l-2.364,1.426v3.473
		h-1.743v1.849h1.743v8.069c0,1.426,0.097,2.362,0.291,2.807c0.193,0.445,0.528,0.804,1.003,1.076
		c0.476,0.273,1.145,0.41,2.008,0.41c0.528,0,1.126-0.071,1.795-0.211L52.581,21.874z"/>
	<path fill="#444344" d="M55.73,22.646c0.348,0.48,0.88,0.878,1.598,1.195c0.718,0.317,1.49,0.476,2.318,0.476
		c1.875,0,3.358-0.792,4.45-2.377V24h2.126V9.975h-2.377v7.515c0,1.197-0.13,2.111-0.39,2.74s-0.702,1.127-1.327,1.492
		c-0.625,0.366-1.294,0.548-2.008,0.548c-0.713,0-1.312-0.178-1.796-0.535c-0.484-0.356-0.801-0.847-0.95-1.472
		c-0.098-0.432-0.146-1.268-0.146-2.509V9.975h-2.377v8.69c0,1.013,0.048,1.752,0.145,2.219
		C55.138,21.579,55.383,22.167,55.73,22.646z"/>
	<path fill="#444344" d="M72.04,23.393c0.938,0.616,1.966,0.924,3.084,0.924c1.726,0,3.033-0.695,3.922-2.086V24h2.206V4.639h-2.364
		v6.947c-0.414-0.572-0.951-1.037-1.611-1.394c-0.66-0.356-1.413-0.535-2.258-0.535c-1.154,0-2.197,0.304-3.13,0.911
		c-0.934,0.607-1.634,1.481-2.101,2.622s-0.699,2.41-0.699,3.81c0,1.435,0.257,2.706,0.772,3.81
		C70.376,21.916,71.103,22.776,72.04,23.393z M72.595,12.92c0.709-0.863,1.592-1.294,2.648-1.294c1.083,0,1.994,0.449,2.733,1.347
		s1.109,2.307,1.109,4.226c0,1.743-0.363,3.04-1.09,3.889s-1.609,1.274-2.647,1.274c-1.03,0-1.924-0.444-2.681-1.334
		c-0.758-0.889-1.137-2.231-1.137-4.028C71.531,15.143,71.886,13.783,72.595,12.92z"/>
	<path fill="#444344" d="M97.126,16.961c0-2.315-0.595-4.111-1.783-5.388c-1.188-1.276-2.721-1.915-4.596-1.915
		c-1.938,0-3.513,0.652-4.729,1.955c-1.215,1.303-1.822,3.134-1.822,5.494c0,2.28,0.602,4.052,1.803,5.315
		c1.202,1.264,2.828,1.895,4.88,1.895c1.629,0,2.967-0.396,4.015-1.188s1.766-1.906,2.153-3.341l-2.457-0.304
		c-0.361,1.004-0.85,1.734-1.466,2.192s-1.36,0.687-2.231,0.687c-1.171,0-2.148-0.409-2.933-1.228
		c-0.783-0.819-1.219-1.999-1.307-3.54h10.459C97.121,17.313,97.126,17.102,97.126,16.961z M86.785,15.64
		c0.079-1.224,0.49-2.201,1.234-2.932s1.662-1.096,2.754-1.096c1.206,0,2.188,0.458,2.945,1.374c0.492,0.59,0.792,1.475,0.897,2.654
		H86.785z"/>
	<path fill="#444344" d="M18.596,78.486c0.811-0.092,1.751-0.214,2.823-0.367c0.138,0.612,0.291,1.308,0.459,2.089l4.039-1.791
		c-0.857-3.029-2.127-6.41-3.81-10.143l-3.442,1.537c0.612,1.546,1.071,2.762,1.377,3.648c-1.76,0.169-3.206,0.275-4.337,0.322
		c1.392-1.729,3.236-4.368,5.531-7.918c1.545-2.447,2.479-3.879,2.8-4.291l-4.773-2.801c-0.704,1.791-2.165,4.468-4.383,8.033
		c-0.612-0.766-1.071-1.332-1.377-1.699c1.117-1.683,2.272-3.679,3.465-5.989c0.872-1.729,1.453-2.823,1.744-3.282l-5.439-2.088
		c-0.168,0.72-0.643,1.989-1.423,3.81c-0.49,1.133-1.102,2.349-1.836,3.649l-0.895-0.941l-0.757-0.78l-2.731,4.888
		c2.295,2.188,4.337,4.575,6.127,7.16c-0.444,0.658-0.964,1.377-1.561,2.158l-0.184,0.229H9.141c-1.53,0-2.609-0.053-3.236-0.16
		l0.597,5.737c0.505-0.106,1.14-0.184,1.905-0.229c2.035-0.122,3.633-0.229,4.796-0.321v14.091c0,2.157-0.092,3.855-0.275,5.095
		h5.944c-0.184-1.193-0.275-2.884-0.275-5.071V78.486z"/>
	<path fill="#444344" d="M5.744,93.839l4.567,2.043c0.887-3.901,1.392-8.689,1.515-14.366l-4.36-0.712
		C7.389,86.343,6.815,90.688,5.744,93.839z"/>
	<path fill="#444344" d="M44.391,64.556c0.581-0.779,1.469-2.088,2.662-3.924c0.474-0.734,0.826-1.277,1.056-1.629l-3.488-3.305
		c-0.918,0.122-2.165,0.184-3.741,0.184H29.864c-2.647,0-4.468-0.092-5.462-0.275v5.989c0.948-0.138,2.203-0.206,3.764-0.206h1.239
		l-3.351,1.95c1.453,1.836,2.356,2.96,2.708,3.374c0.612,0.719,1.369,1.491,2.272,2.317c-2.402,1.285-4.766,2.234-7.091,2.846
		c1.3,1.484,2.456,3.267,3.465,5.347c3.351-1.392,6.166-2.876,8.445-4.451c3.029,2.034,6.946,3.71,11.75,5.025
		c0.597-2.249,1.423-4.276,2.479-6.082c-3.335-0.504-6.502-1.453-9.501-2.846C42.004,67.479,43.273,66.04,44.391,64.556z
		 M35.601,65.91c-1.806-1.377-3.32-2.884-4.544-4.521h8.652C38.454,63.164,37.085,64.671,35.601,65.91z"/>
	<path fill="#444344" d="M38.906,91.154v-5.416h3.695c1.897,0,3.458,0.069,4.682,0.206v-5.897c-1.086,0.169-2.639,0.253-4.659,0.253
		h-3.718v-0.574c0-1.836,0.076-3.273,0.229-4.314h-6.426c0.153,0.796,0.229,2.241,0.229,4.338V80.3h-2.433
		c-2.203,0-3.817-0.077-4.842-0.23v5.875c1.453-0.137,3.06-0.206,4.819-0.206h2.456v5.416h-5.072c-1.255,0-2.257-0.022-3.006-0.069
		l-0.046-0.504c-0.321-4.009-0.75-7.367-1.285-10.075l-3.764,0.964c0.474,2.724,0.788,6.617,0.941,11.682l2.639-0.712v4.406
		c1.392-0.184,3.197-0.275,5.416-0.275h15.101c2.249,0,4.039,0.092,5.37,0.275v-5.921c-1.102,0.153-2.861,0.229-5.278,0.229H38.906z
		"/>
	<path fill="#444344" d="M83.542,90.374c2.463-1.729,4.62-3.702,6.472-5.921c0.795-0.918,1.346-1.538,1.652-1.858l-2.983-3.121
		c-0.979,0.092-2.387,0.137-4.223,0.137H68.097c-2.479,0-4.207-0.068-5.186-0.206v5.141c1.086-0.122,2.685-0.184,4.796-0.184h3.121
		l-5.141,2.02c0.443,0.353,1.461,1.171,3.052,2.456c0.842,0.688,1.652,1.3,2.434,1.836c-3.26,1.04-7.16,1.621-11.705,1.744
		c1.01,2.064,1.706,3.992,2.089,5.783c3.702-0.475,6.893-1.102,9.569-1.883c2.097-0.643,4.093-1.399,5.99-2.271
		c4.391,2.126,10.098,3.503,17.12,4.131c0.551-2.387,1.293-4.482,2.226-6.288c-0.565,0-1.002,0-1.308,0
		C90.946,91.889,87.076,91.384,83.542,90.374z M77.46,88.103c-2.004-0.965-3.9-2.211-5.691-3.741h10.764
		C81.048,85.8,79.357,87.046,77.46,88.103z"/>
	<path fill="#444344" d="M61.901,70.294h5.76v4.131c-0.016,1.346-0.068,2.363-0.16,3.052c0.703-0.046,1.774-0.069,3.213-0.069h14.32
		c1.27,0,2.271,0.023,3.006,0.069c-0.092-0.719-0.138-1.736-0.138-3.052v-4.131h3.947c1.896,0,3.273,0.068,4.131,0.206v-5.485
		c-1.071,0.139-2.456,0.207-4.153,0.207h-3.925v-1.768c0-0.306,0.008-0.581,0.022-0.826h2.984c2.004,0,3.648,0.062,4.934,0.184v-5.6
		c-1.225,0.184-3.189,0.275-5.898,0.275h-11.13v-0.803c-0.016-1.132,0.061-2.004,0.229-2.616h-6.609
		c0.152,0.688,0.229,1.538,0.229,2.548v0.871h-11.36c-2.172,0-4.031-0.076-5.576-0.229c0.138,1.529,0.207,3.564,0.207,6.104
		c0,6.166-0.101,10.756-0.299,13.77c-0.275,4.178-0.812,7.619-1.606,10.328c-0.49,1.683-1.209,3.419-2.157,5.209
		c1.729,1.499,3.273,3.273,4.636,5.324c1.882-3.183,3.251-6.984,4.108-11.406C61.396,82.426,61.824,76.995,61.901,70.294z
		 M73.582,63.546l0.022-0.918h8.354c0.016,0.275,0.023,0.56,0.023,0.85v1.744h-8.399V63.546z M73.56,70.087h8.422v2.777H73.56
		V70.087z M61.946,62.628h5.691c0,0.275,0.016,0.628,0.047,1.057v1.537h-5.738V62.628z"/>
</g>
</svg>
