<?xml version="1.0" encoding="utf-8"?>
<!-- Generator: Adobe Illustrator 15.0.0, SVG Export Plug-In . SVG Version: 6.00 Build 0)  -->
<!DOCTYPE svg PUBLIC "-//W3C//DTD SVG 1.1//EN" "http://www.w3.org/Graphics/SVG/1.1/DTD/svg11.dtd">
<svg version="1.1" id="レイヤー_1" xmlns="http://www.w3.org/2000/svg" xmlns:xlink="http://www.w3.org/1999/xlink" x="0px"
	 y="0px" width="102.05px" height="102.05px" viewBox="0 0 102.05 102.05" enable-background="new 0 0 102.05 102.05"
	 xml:space="preserve">
<path fill="#444344" d="M50.82,5.831c-25.07,0-45.395,20.324-45.395,45.394c0,25.072,20.324,45.395,45.395,45.395
	s45.396-20.322,45.396-45.395C96.216,26.155,75.891,5.831,50.82,5.831z M83.101,51.186c0,16.811-7.999,31.285-19.411,37.616
	c-1.328,0.455-2.688,0.841-4.076,1.155c6.15-7.144,10.273-21.651,10.273-38.771c0-17.041-4.085-31.494-10.188-38.672
	c1.474,0.336,2.917,0.752,4.323,1.248C75.255,20.187,83.101,34.539,83.101,51.186z M18.541,51.186
	c0-16.646,7.846-30.999,19.08-37.425c1.406-0.495,2.848-0.911,4.321-1.247c-6.103,7.178-10.187,21.631-10.187,38.672
	c0,17.12,4.123,31.627,10.272,38.771c-1.387-0.313-2.747-0.699-4.075-1.154C26.54,82.471,18.541,67.997,18.541,51.186z
	 M67.387,51.186c0,18.528-5.268,34.649-12.218,39.519c-0.954,0.104-1.918,0.169-2.891,0.204V11.542
	c1.018,0.037,2.026,0.109,3.022,0.221C62.186,16.743,67.387,32.776,67.387,51.186z M34.255,51.186
	c0-18.409,5.2-34.442,12.083-39.422c0.998-0.112,2.006-0.185,3.024-0.222v79.366c-0.973-0.035-1.938-0.101-2.892-0.205
	C39.521,85.835,34.255,69.713,34.255,51.186z M11.1,51.225c0-13.073,6.317-24.668,16.063-31.907
	c-6.835,7.954-11.123,19.293-11.123,31.867c0,12.676,4.354,24.1,11.286,32.063C17.489,76.019,11.1,64.37,11.1,51.225z
	 M74.315,83.247c6.931-7.962,11.285-19.387,11.285-32.062c0-12.574-4.287-23.913-11.122-31.866
	c9.745,7.238,16.062,18.833,16.062,31.906C90.54,64.369,84.152,76.018,74.315,83.247z"/>
</svg>
