<?xml version="1.0" encoding="utf-8"?>
<!-- Generator: Adobe Illustrator 15.0.0, SVG Export Plug-In . SVG Version: 6.00 Build 0)  -->
<!DOCTYPE svg PUBLIC "-//W3C//DTD SVG 1.1//EN" "http://www.w3.org/Graphics/SVG/1.1/DTD/svg11.dtd">
<svg version="1.1" id="レイヤー_1" xmlns="http://www.w3.org/2000/svg" xmlns:xlink="http://www.w3.org/1999/xlink" x="0px"
	 y="0px" width="102.05px" height="102.05px" viewBox="0 0 102.05 102.05" enable-background="new 0 0 102.05 102.05"
	 xml:space="preserve">
<g>
	<path fill="#AAAAAA" d="M51,4C25.042,4,4,25.043,4,51s21.042,47,47,47c25.957,0,47-21.043,47-47S76.957,4,51,4z M51,8
		c23.375,0,42.439,18.751,42.975,42H84V30h-2v20H68V38h-2v12H52V30h-2v20H36V38h-2v12H20V30h-2v20H8.025C8.561,26.751,27.625,8,51,8
		z M51,94C27.625,94,8.561,75.249,8.025,52H18h2h30h2h30h2h9.975C93.439,75.249,74.375,94,51,94z"/>
	<rect x="31.926" y="56.438" fill="#AAAAAA" width="2.647" height="21.562"/>
	<path fill="#AAAAAA" d="M45.017,62.025c-1.932,0-3.569,0.58-4.913,1.736c-1.608,1.393-2.412,3.535-2.412,6.428
		c0,2.637,0.674,4.657,2.022,6.059c1.348,1.402,3.116,2.104,5.302,2.104c1.363,0,2.621-0.318,3.773-0.955
		c1.151-0.638,2.029-1.532,2.633-2.685c0.603-1.152,0.905-2.733,0.905-4.743c0-2.48-0.682-4.425-2.045-5.832
		C48.919,62.73,47.164,62.025,45.017,62.025z M48.296,74.675c-0.873,1.001-1.966,1.501-3.28,1.501c-1.324,0-2.422-0.498-3.294-1.494
		c-0.873-0.994-1.309-2.492-1.309-4.492s0.436-3.496,1.309-4.486c0.873-0.99,1.971-1.485,3.294-1.485
		c1.304,0,2.395,0.497,3.273,1.493c0.877,0.994,1.316,2.459,1.316,4.39C49.606,72.15,49.169,73.675,48.296,74.675z"/>
	<path fill="#AAAAAA" d="M67.153,63.865c-0.393-0.55-0.983-0.994-1.772-1.332s-1.654-0.508-2.596-0.508
		c-2.167,0-3.824,0.859-4.972,2.574v-2.221h-2.383v15.62h2.647v-8.53c0-2,0.409-3.359,1.229-4.074
		c0.818-0.716,1.792-1.074,2.919-1.074c0.706,0,1.321,0.16,1.847,0.479c0.524,0.318,0.89,0.745,1.096,1.279
		c0.206,0.535,0.309,1.341,0.309,2.42v9.501h2.647v-9.604c0-1.226-0.049-2.084-0.147-2.574
		C67.82,65.066,67.545,64.414,67.153,63.865z"/>
	<rect x="72.934" y="74.984" fill="#AAAAAA" width="3.016" height="3.015"/>
</g>
</svg>
