<?xml version="1.0" encoding="utf-8"?>
<!-- Generator: Adobe Illustrator 15.0.0, SVG Export Plug-In . SVG Version: 6.00 Build 0)  -->
<!DOCTYPE svg PUBLIC "-//W3C//DTD SVG 1.1//EN" "http://www.w3.org/Graphics/SVG/1.1/DTD/svg11.dtd">
<svg version="1.1" id="レイヤー_1" xmlns="http://www.w3.org/2000/svg" xmlns:xlink="http://www.w3.org/1999/xlink" x="0px"
	 y="0px" width="102.05px" height="102.05px" viewBox="0 0 102.05 102.05" enable-background="new 0 0 102.05 102.05"
	 xml:space="preserve">
<g>
	<rect x="3.542" y="4.218" fill="#444344" width="2.117" height="17.245"/>
	<path fill="#444344" d="M14.01,21.745c1.09,0,2.096-0.255,3.017-0.765s1.624-1.225,2.106-2.146
		c0.482-0.921,0.723-2.186,0.723-3.793c0-1.984-0.545-3.539-1.635-4.664c-1.09-1.125-2.494-1.688-4.211-1.688
		c-1.545,0-2.854,0.462-3.929,1.388c-1.286,1.114-1.929,2.827-1.929,5.141c0,2.109,0.539,3.725,1.618,4.846
		C10.848,21.185,12.262,21.745,14.01,21.745z M11.375,11.629c0.698-0.792,1.576-1.188,2.635-1.188c1.043,0,1.916,0.398,2.617,1.194
		c0.702,0.796,1.053,1.967,1.053,3.511c0,1.639-0.349,2.858-1.047,3.659c-0.698,0.8-1.572,1.2-2.623,1.2
		c-1.059,0-1.937-0.398-2.635-1.194c-0.698-0.796-1.047-1.994-1.047-3.594S10.677,12.421,11.375,11.629z"/>
	<path fill="#444344" d="M24.456,14.64c0-1.6,0.327-2.686,0.982-3.258c0.655-0.572,1.433-0.858,2.335-0.858
		c0.564,0,1.057,0.127,1.476,0.382s0.712,0.596,0.876,1.023c0.165,0.427,0.247,1.072,0.247,1.935v7.599h2.117v-7.681
		c0-0.98-0.039-1.667-0.118-2.059c-0.125-0.604-0.345-1.125-0.659-1.564C31.4,9.72,30.927,9.365,30.296,9.094
		c-0.631-0.271-1.323-0.406-2.076-0.406c-1.733,0-3.059,0.686-3.976,2.058V8.971h-1.906v12.492h2.118V14.64z"/>
	<path fill="#444344" d="M40.324,21.463c1.38,0,2.533-0.545,3.458-1.635c0.008,1.38-0.043,2.286-0.153,2.717
		c-0.188,0.706-0.549,1.255-1.082,1.647c-0.534,0.392-1.29,0.588-2.271,0.588c-0.91,0-1.627-0.196-2.152-0.588
		c-0.393-0.29-0.631-0.753-0.718-1.388l-2.059-0.306c-0.031,1.349,0.412,2.358,1.329,3.029c0.918,0.67,2.122,1.006,3.611,1.006
		c1.255,0,2.312-0.235,3.17-0.706c0.858-0.471,1.486-1.112,1.882-1.923s0.594-2.19,0.594-4.135V8.971h-1.953v1.505
		c-0.957-1.192-2.172-1.788-3.646-1.788c-1.106,0-2.069,0.274-2.888,0.823s-1.445,1.327-1.876,2.335s-0.647,2.107-0.647,3.299
		c0,1.733,0.471,3.219,1.412,4.458C37.277,20.843,38.606,21.463,40.324,21.463z M38.089,11.588c0.659-0.765,1.459-1.147,2.4-1.147
		c0.957,0,1.774,0.388,2.453,1.165c0.678,0.776,1.018,1.929,1.018,3.458c0,1.6-0.33,2.774-0.988,3.523s-1.475,1.124-2.447,1.124
		c-0.98,0-1.796-0.376-2.447-1.129s-0.976-1.949-0.976-3.588C37.101,13.488,37.43,12.353,38.089,11.588z"/>
	<rect x="49.146" y="4.218" fill="#444344" width="2.118" height="2.435"/>
	<rect x="49.146" y="8.971" fill="#444344" width="2.118" height="12.492"/>
	<path fill="#444344" d="M54.875,17.805c0,1.271,0.086,2.104,0.259,2.5c0.172,0.396,0.47,0.716,0.894,0.958
		c0.424,0.243,1.02,0.365,1.788,0.365c0.471,0,1.004-0.063,1.6-0.188l-0.306-1.871c-0.385,0.055-0.694,0.083-0.93,0.083
		c-0.313,0-0.555-0.051-0.723-0.153c-0.169-0.102-0.291-0.239-0.365-0.412s-0.111-0.561-0.111-1.165v-7.305h2.129V8.971H56.98V4.606
		l-2.105,1.271v3.094h-1.553v1.647h1.553V17.805z"/>
	<path fill="#444344" d="M61.915,20.257c0.31,0.427,0.784,0.782,1.423,1.064c0.64,0.282,1.327,0.423,2.064,0.423
		c1.671,0,2.992-0.706,3.965-2.117v1.835h1.894V8.971h-2.117v6.693c0,1.067-0.116,1.88-0.348,2.441
		c-0.231,0.561-0.625,1.004-1.182,1.329c-0.557,0.326-1.153,0.488-1.788,0.488s-1.169-0.159-1.6-0.477
		c-0.432-0.317-0.714-0.754-0.847-1.312c-0.087-0.384-0.13-1.129-0.13-2.235V8.971h-2.117v7.74c0,0.902,0.043,1.561,0.129,1.977
		C61.388,19.307,61.605,19.83,61.915,20.257z"/>
	<path fill="#444344" d="M76.442,20.922c0.836,0.549,1.751,0.823,2.747,0.823c1.537,0,2.701-0.619,3.493-1.858v1.576h1.965V4.218
		h-2.105v6.188c-0.369-0.51-0.847-0.923-1.436-1.241c-0.588-0.317-1.259-0.476-2.011-0.476c-1.028,0-1.957,0.271-2.788,0.812
		s-1.455,1.319-1.87,2.335c-0.416,1.016-0.624,2.146-0.624,3.394c0,1.278,0.229,2.41,0.688,3.394
		C74.961,19.606,75.607,20.373,76.442,20.922z M76.937,11.594c0.631-0.769,1.418-1.153,2.358-1.153c0.965,0,1.776,0.4,2.436,1.2
		c0.658,0.8,0.987,2.055,0.987,3.764c0,1.553-0.323,2.708-0.97,3.464c-0.647,0.757-1.434,1.135-2.358,1.135
		c-0.918,0-1.714-0.396-2.389-1.188c-0.674-0.792-1.011-1.988-1.011-3.588C75.99,13.574,76.306,12.362,76.937,11.594z"/>
	<path fill="#444344" d="M98.787,15.193c0-2.063-0.529-3.662-1.588-4.799s-2.424-1.706-4.094-1.706c-1.726,0-3.129,0.58-4.211,1.741
		c-1.083,1.161-1.624,2.792-1.624,4.894c0,2.031,0.535,3.609,1.606,4.734c1.07,1.125,2.519,1.688,4.346,1.688
		c1.451,0,2.643-0.353,3.576-1.059s1.572-1.698,1.917-2.976l-2.188-0.271c-0.321,0.894-0.757,1.545-1.306,1.953
		s-1.212,0.612-1.988,0.612c-1.043,0-1.913-0.365-2.611-1.094c-0.698-0.729-1.086-1.78-1.164-3.152h9.316
		C98.783,15.507,98.787,15.319,98.787,15.193z M89.576,14.017c0.071-1.09,0.438-1.96,1.101-2.611
		c0.662-0.651,1.479-0.977,2.452-0.977c1.074,0,1.948,0.408,2.623,1.223c0.439,0.526,0.706,1.314,0.8,2.365H89.576z"/>
	<path fill="#444344" d="M42.119,88.423v-2.432h1.515c2.05,0,3.564,0.054,4.544,0.16v-4.773c-0.903,0.123-2.417,0.184-4.544,0.184
		h-1.515v-1.652h1.285c1.729,0,3.029,0.031,3.901,0.092c-0.107-0.765-0.161-1.813-0.161-3.145v-3.373
		c0-1.392,0.053-2.479,0.161-3.259c-0.734,0.092-2.035,0.138-3.901,0.138H28.739c-1.637,0-2.922-0.03-3.855-0.092
		c0.076,0.658,0.115,1.706,0.115,3.145v3.441c0,1.438-0.039,2.494-0.115,3.168c0.75-0.077,2.035-0.115,3.855-0.115h7.757v1.652
		h-8.009c-2.142,0-3.68-0.061-4.613-0.184v4.773c0.78-0.076,1.706-0.122,2.777-0.138v2.409h-1.997c-0.643,0-1.17-0.022-1.583-0.068
		c-0.168-2.723-0.467-5.247-0.895-7.573l-3.534,0.804c0.26,1.621,0.466,3.48,0.62,5.576c0.107,1.652,0.161,2.938,0.161,3.855
		c0,0.215,0,0.536,0,0.964l2.938-0.78v2.271c1.27-0.168,3.121-0.252,5.554-0.252h8.583v0.413c0,1.896-0.092,3.419-0.275,4.567h6.173
		c-0.184-1.102-0.275-2.617-0.275-4.545V93.22h2.341c1.974,0,3.656,0.077,5.049,0.229v-5.278c-1.193,0.169-2.892,0.252-5.095,0.252
		H42.119z M36.496,88.423h-4.383v-2.432h4.383V88.423z M41.361,76.122H30.529v-1.996h10.832V76.122z"/>
	<path fill="#444344" d="M17.838,78.486c0.795-0.076,1.599-0.152,2.41-0.229c0.092,0.459,0.214,1.109,0.367,1.951l3.947-1.285
		c-0.796-3.535-1.76-6.739-2.892-9.616l-3.58,1.147c0.459,1.225,0.795,2.195,1.01,2.914c-0.796,0.062-1.683,0.115-2.662,0.161
		c-0.245,0-0.727,0.022-1.446,0.069l0.413-0.551c0.887-1.193,1.813-2.479,2.777-3.855c1.606-2.342,2.784-4.146,3.534-5.416
		c0.673-1.133,1.147-1.874,1.423-2.227l-4.819-2.639c-0.275,1.07-1.629,3.572-4.062,7.504c-0.291-0.367-0.734-0.918-1.331-1.652
		c1.27-1.896,2.585-4.154,3.947-6.77l0.757-1.4l0.39-0.734l-5.072-1.974c-0.536,1.974-1.637,4.3-3.305,6.977l-0.321-0.367
		l-0.803-0.872L5.79,64.327c1.744,1.759,3.587,3.947,5.531,6.563c-0.643,0.934-1.347,1.905-2.111,2.915
		c-0.78,0.016-1.201,0.022-1.262,0.022c-0.78,0-1.5-0.053-2.157-0.16l0.482,5.737c0.856-0.138,2.433-0.275,4.728-0.413l1.629-0.092
		v14.183c0,2.157-0.092,3.87-0.275,5.141h5.76c-0.184-1.255-0.275-2.969-0.275-5.141V78.486z"/>
	<path fill="#444344" d="M45.492,64.235v-2.617c0-1.729,0.061-3.228,0.184-4.498c-1.178,0.123-2.77,0.184-4.773,0.184H36.45
		c0.397-1.315,0.688-2.264,0.872-2.846l-6.127-0.412c-0.153,1.102-0.367,2.188-0.643,3.258h-2.157c-1.576,0-2.968-0.083-4.177-0.252
		v4.797c0.964-0.107,2.042-0.161,3.236-0.161h1.675c-0.26,0.704-0.604,1.553-1.033,2.548h-1.721c-1.974,0-3.351-0.054-4.131-0.161
		v4.957c1.04-0.122,2.555-0.184,4.544-0.184h17.923c2.004,0,3.603,0.077,4.796,0.229v-5.095c-0.857,0.169-2.004,0.253-3.442,0.253
		H45.492z M39.938,64.235h-5.852c0.397-0.979,0.719-1.828,0.964-2.548h4.888V64.235z"/>
	<path fill="#444344" d="M5.561,93.725l4.292,2.226c0.841-3.595,1.384-8.36,1.629-14.297l-4.314-0.734
		C6.968,86.534,6.433,90.803,5.561,93.725z"/>
	<path fill="#444344" d="M61.901,70.294h5.76v4.131c-0.016,1.346-0.068,2.363-0.16,3.052c0.703-0.046,1.774-0.069,3.213-0.069h14.32
		c1.27,0,2.271,0.023,3.006,0.069c-0.092-0.719-0.138-1.736-0.138-3.052v-4.131h3.947c1.896,0,3.273,0.068,4.131,0.206v-5.485
		c-1.071,0.139-2.456,0.207-4.153,0.207h-3.925v-1.768c0-0.306,0.008-0.581,0.022-0.826h2.984c2.004,0,3.648,0.062,4.934,0.184v-5.6
		c-1.225,0.184-3.189,0.275-5.898,0.275h-11.13v-0.803c-0.016-1.132,0.061-2.004,0.229-2.616h-6.609
		c0.152,0.688,0.229,1.538,0.229,2.548v0.871h-11.36c-2.172,0-4.031-0.076-5.576-0.229c0.138,1.529,0.207,3.564,0.207,6.104
		c0,6.166-0.101,10.756-0.299,13.77c-0.275,4.178-0.812,7.619-1.606,10.328c-0.49,1.683-1.209,3.419-2.157,5.209
		c1.729,1.499,3.273,3.273,4.636,5.324c1.882-3.183,3.251-6.984,4.108-11.406C61.396,82.426,61.824,76.995,61.901,70.294z
		 M73.582,63.546l0.022-0.918h8.354c0.016,0.275,0.023,0.56,0.023,0.85v1.744h-8.399V63.546z M73.56,70.087h8.422v2.777H73.56
		V70.087z M61.946,62.628h5.691c0,0.275,0.016,0.628,0.047,1.057v1.537h-5.738V62.628z"/>
	<path fill="#444344" d="M83.542,90.374c2.463-1.729,4.62-3.702,6.472-5.921c0.795-0.918,1.346-1.538,1.652-1.858l-2.983-3.121
		c-0.979,0.092-2.387,0.137-4.223,0.137H68.097c-2.479,0-4.207-0.068-5.186-0.206v5.141c1.086-0.122,2.685-0.184,4.796-0.184h3.121
		l-5.141,2.02c0.443,0.353,1.461,1.171,3.052,2.456c0.842,0.688,1.652,1.3,2.434,1.836c-3.26,1.04-7.16,1.621-11.705,1.744
		c1.01,2.064,1.706,3.992,2.089,5.783c3.702-0.475,6.893-1.102,9.569-1.883c2.097-0.643,4.093-1.399,5.99-2.271
		c4.391,2.126,10.098,3.503,17.12,4.131c0.551-2.387,1.293-4.482,2.226-6.288c-0.565,0-1.002,0-1.308,0
		C90.946,91.889,87.076,91.384,83.542,90.374z M77.46,88.103c-2.004-0.965-3.9-2.211-5.691-3.741h10.764
		C81.048,85.8,79.357,87.046,77.46,88.103z"/>
</g>
</svg>
