<?xml version="1.0" encoding="utf-8"?>
<!-- Generator: Adobe Illustrator 15.0.0, SVG Export Plug-In . SVG Version: 6.00 Build 0)  -->
<!DOCTYPE svg PUBLIC "-//W3C//DTD SVG 1.1//EN" "http://www.w3.org/Graphics/SVG/1.1/DTD/svg11.dtd">
<svg version="1.1" id="レイヤー_1" xmlns="http://www.w3.org/2000/svg" xmlns:xlink="http://www.w3.org/1999/xlink" x="0px"
	 y="0px" width="102.05px" height="102.05px" viewBox="0 0 102.05 102.05" enable-background="new 0 0 102.05 102.05"
	 xml:space="preserve">
<path d="M67.849,74.732c6.641,0,10.762-3.106,16.359-9.318c6.274-6.922,9.409-14.841,9.409-23.758c0-6.244-1.49-12.025-4.474-17.348
	c-3.504-6.181-8.298-10.832-14.369-13.954c-6.076-3.122-12.927-4.684-20.552-4.684c-9.843,0-18.216,2.216-25.12,6.645
	c-6.905,4.428-12.233,10.81-15.986,19.145c-3.076,6.797-4.613,13.947-4.613,21.452c0,6.735,1.292,13.01,3.876,18.822
	c2.059,4.582,5.121,8.636,9.18,12.157c4.059,3.521,8.973,6.157,14.739,7.911c5.767,1.754,12.064,2.629,18.891,2.629
	c7.413,0,13.748-0.976,19.006-2.93c5.26-1.951,9.795-4.605,13.607-7.957s6.507-6.644,8.077-9.873h-8.354
	c-2.704,3.875-6.776,7.166-12.22,9.873c-5.446,2.705-12.195,4.06-20.254,4.06c-7.536,0-14.4-1.3-20.599-3.899
	c-6.198-2.599-10.934-6.619-14.208-12.063c-3.276-5.444-4.914-11.933-4.914-19.468c0-6.44,1.321-12.511,3.943-18.224l0.001-0.02
	l0.013-0.009c0.305-0.663,0.616-1.324,0.957-1.978c3.274-6.289,7.887-11.117,13.839-14.485c5.952-3.369,12.524-5.052,19.724-5.052
	c6.304,0,12.063,1.336,17.271,4.013c5.215,2.676,9.138,6.244,11.767,10.703c2.629,4.46,3.942,9.258,3.942,14.395
	c0,4.397-1.02,8.665-3.066,12.801s-4.82,7.435-8.325,9.896c-2.646,1.876-4.782,2.813-6.414,2.813c-0.223,0-1.147,0.114-2.281-0.287
	l4.564-21.738c0.803-3.926,1.205-6.8,1.205-8.625c0-3.617-1.137-6.507-3.408-8.671s-5.401-3.246-9.391-3.246
	c-2.998,0-5.934,0.772-8.81,2.318c-2.875,1.546-5.966,4.003-9.273,7.373l1.809-8.578h-7.605L25.499,74.818h8.393l4.777-22.906
	c1.576-7.512,4.042-12.813,7.396-15.905c3.354-3.091,7.18-4.637,11.476-4.637c2.133,0,3.764,0.51,4.893,1.531
	c1.128,1.02,1.691,2.349,1.691,3.988c0,1.452-0.322,3.693-0.973,6.723l-6.537,31.207h7.767"/>
</svg>
