<?xml version="1.0" encoding="utf-8"?>
<!-- Generator: Adobe Illustrator 15.0.0, SVG Export Plug-In . SVG Version: 6.00 Build 0)  -->
<!DOCTYPE svg PUBLIC "-//W3C//DTD SVG 1.1//EN" "http://www.w3.org/Graphics/SVG/1.1/DTD/svg11.dtd">
<svg version="1.1" id="レイヤー_1" xmlns="http://www.w3.org/2000/svg" xmlns:xlink="http://www.w3.org/1999/xlink" x="0px"
	 y="0px" width="102.05px" height="102.05px" viewBox="0 0 102.05 102.05" enable-background="new 0 0 102.05 102.05"
	 xml:space="preserve">
<path d="M98,18v-4H88V4h-4v10H18V4h-4v10H4v4h10v66H4v4h10v10h4V88h66v10h4V88h10v-4H88V18H98z M84,70H74V32h10V70z M18,32h10v38H18
	V32z M70,56H60V46h10V56z M56,56H46V46h10V56z M46,70V60h10v10H46z M32,46h10v10H32V46z M46,42V32l10,0v10H46z M42,42H32V32h10V42z
	 M32,60h10v10H32V60z M70,74v10H32V74H70z M60,70V60h10v10H60z M70,42H60V32h10V42z M32,28V18h38v10L32,28z M28,18v10H18V18H28z
	 M18,74h10v10H18V74z M74,84V74h10v10H74z M84,28H74V18h10V28z"/>
</svg>
