<?xml version="1.0" encoding="utf-8"?>
<!-- Generator: Adobe Illustrator 15.0.0, SVG Export Plug-In . SVG Version: 6.00 Build 0)  -->
<!DOCTYPE svg PUBLIC "-//W3C//DTD SVG 1.1//EN" "http://www.w3.org/Graphics/SVG/1.1/DTD/svg11.dtd">
<svg version="1.1" id="レイヤー_1" xmlns="http://www.w3.org/2000/svg" xmlns:xlink="http://www.w3.org/1999/xlink" x="0px"
	 y="0px" width="102.05px" height="102.05px" viewBox="0 0 102.05 102.05" enable-background="new 0 0 102.05 102.05"
	 xml:space="preserve">
<polygon fill="#444344" points="98,18 98,14 88,14 88,4 84,4 84,14 18,14 18,4 14,4 14,14 4,14 4,18 14,18 14,84 4,84 4,88 14,88 
	14,98 18,98 18,88 84,88 84,98 88,98 88,88 98,88 98,84 88,84 88,18 "/>
</svg>
