<?xml version="1.0" encoding="utf-8"?>
<!-- Generator: Adobe Illustrator 15.0.0, SVG Export Plug-In . SVG Version: 6.00 Build 0)  -->
<!DOCTYPE svg PUBLIC "-//W3C//DTD SVG 1.1//EN" "http://www.w3.org/Graphics/SVG/1.1/DTD/svg11.dtd">
<svg version="1.1" id="レイヤー_1" xmlns="http://www.w3.org/2000/svg" xmlns:xlink="http://www.w3.org/1999/xlink" x="0px"
	 y="0px" width="102.05px" height="102.05px" viewBox="0 0 102.05 102.05" enable-background="new 0 0 102.05 102.05"
	 xml:space="preserve">
<path fill="#444344" d="M98,18v-4H88V4h-4v10H18V4h-4v10H4v4h10v66H4v4h10v10h4V88h66v10h4V88h10v-4H88V18H98z M32,18h38v10l-38,0
	V18z M28,84H18V74h10V84z M28,70H18V32h10V70z M28,28H18V18h10V28z M70,84H32V74h38V84z M84,84H74V74h10V84z M84,70H74V32h10V70z
	 M84,28H74V18h10V28z"/>
</svg>
