<?xml version="1.0" encoding="utf-8"?>
<!-- Generator: Adobe Illustrator 15.0.0, SVG Export Plug-In . SVG Version: 6.00 Build 0)  -->
<!DOCTYPE svg PUBLIC "-//W3C//DTD SVG 1.1//EN" "http://www.w3.org/Graphics/SVG/1.1/DTD/svg11.dtd">
<svg version="1.1" id="レイヤー_3" xmlns="http://www.w3.org/2000/svg" xmlns:xlink="http://www.w3.org/1999/xlink" x="0px"
	 y="0px" width="102.05px" height="102.05px" viewBox="0 0 102.05 102.05" enable-background="new 0 0 102.05 102.05"
	 xml:space="preserve">
<g>
	<polygon fill="#444444" points="59.527,51.023 22.677,51.023 19.843,53.858 19.843,62.362 22.677,65.197 31.181,65.197 
		31.181,73.701 34.016,76.535 76.535,76.535 85.039,70.867 85.039,34.016 62.362,34.016 	"/>
	<rect x="68.031" y="2.834" fill="#444444" width="31.182" height="25.512"/>
	<polygon fill="#444444" points="34.016,82.205 31.181,85.039 31.181,90.708 34.016,93.542 48.189,93.542 51.024,90.708 
		51.024,85.039 48.189,82.205 	"/>
	<polygon fill="#444444" points="5.669,70.867 2.835,73.701 2.835,85.039 5.669,87.875 8.504,96.378 11.339,99.212 22.677,99.212 
		25.512,96.378 25.512,73.701 22.677,70.867 	"/>
	<polygon fill="#444444" points="15.122,44.242 23.482,44.242 23.482,9.839 35.742,9.839 35.742,2.834 2.835,2.834 2.835,9.839 
		15.122,9.839 	"/>
</g>
</svg>
