<?xml version="1.0" encoding="utf-8"?>
<!-- Generator: Adobe Illustrator 15.0.0, SVG Export Plug-In . SVG Version: 6.00 Build 0)  -->
<!DOCTYPE svg PUBLIC "-//W3C//DTD SVG 1.1//EN" "http://www.w3.org/Graphics/SVG/1.1/DTD/svg11.dtd">
<svg version="1.1" id="レイヤー_3" xmlns="http://www.w3.org/2000/svg" xmlns:xlink="http://www.w3.org/1999/xlink" x="0px"
	 y="0px" width="102.05px" height="102.05px" viewBox="0 0 102.05 102.05" enable-background="new 0 0 102.05 102.05"
	 xml:space="preserve">
<g>
	<polygon fill="#444344" points="59.337,56.651 54.367,36.851 47.561,36.851 42.379,56.322 38.106,36.851 32.247,36.851 
		39.015,65.197 45.221,65.197 50.848,44.004 56.494,65.197 62.566,65.197 69.449,36.851 63.687,36.851 	"/>
	<path fill="#444344" d="M51.024,2.834c-26.614,0-48.189,21.575-48.189,48.189S24.41,99.213,51.024,99.213
		c26.614,0,48.189-21.575,48.189-48.189S77.638,2.834,51.024,2.834z M88.63,31.181H75.851c-0.959-4.197-2.231-8-3.777-11.339h7.847
		C83.424,23.091,86.377,26.921,88.63,31.181z M76.536,17.008h-5.901c-1.132-2.032-2.381-3.846-3.732-5.428
		C70.361,12.974,73.599,14.801,76.536,17.008z M53.858,8.608c2.234,0.147,4.42,0.468,6.547,0.947c2.576,1.7,4.897,4.229,6.896,7.453
		H53.858V8.608z M53.858,19.842h15.03c1.648,3.271,3.014,7.085,4.042,11.339H53.858V19.842z M45.1,8.924
		c1.937-0.27,3.913-0.42,5.924-0.42v8.504H36.298C38.865,13.388,41.846,10.61,45.1,8.924z M51.024,19.842v11.339H29.672
		c1.244-4.215,2.872-8.039,4.803-11.339H51.024z M38.43,10.401c-1.957,1.846-3.766,4.071-5.396,6.606h-7.523
		C29.363,14.114,33.721,11.859,38.43,10.401z M22.127,19.842h9.227c-1.833,3.375-3.374,7.191-4.557,11.339H13.418
		C15.671,26.921,18.624,23.091,22.127,19.842z M13.418,70.866h12.779c0.959,4.196,2.231,7.999,3.777,11.339h-7.847
		C18.624,78.957,15.67,75.127,13.418,70.866z M25.51,85.039h5.902c1.132,2.032,2.381,3.847,3.733,5.429
		C31.687,89.073,28.449,87.247,25.51,85.039z M48.189,93.439c-2.233-0.147-4.418-0.468-6.544-0.946
		c-2.577-1.7-4.899-4.229-6.898-7.454h13.442V93.439z M48.189,82.205h-15.03c-1.649-3.271-3.014-7.085-4.043-11.339h19.073V82.205z
		 M56.945,93.124c-1.937,0.271-3.911,0.42-5.921,0.42v-8.505h14.725C63.182,88.66,60.199,91.438,56.945,93.124z M51.024,82.205
		V70.866h21.35c-1.243,4.215-2.872,8.039-4.802,11.339H51.024z M63.616,91.646c1.958-1.846,3.767-4.072,5.396-6.607h7.524
		C72.686,87.934,68.326,90.188,63.616,91.646z M79.921,82.205h-9.228c1.833-3.375,3.374-7.191,4.557-11.339h13.38
		C86.377,75.127,83.424,78.957,79.921,82.205z M12.052,68.031c-2.276-5.209-3.548-10.959-3.548-17.007
		c0-6.049,1.271-11.799,3.548-17.008h38.972h2.834h36.138c2.276,5.209,3.548,10.959,3.548,17.008c0,6.048-1.271,11.798-3.548,17.007
		H12.052z"/>
</g>
</svg>
